<svg width="57" height="57" viewBox="0 0 57 57" fill="none" xmlns="http://www.w3.org/2000/svg">
<path d="M56.1852 44.2185C56.166 42.6087 55.761 41.0191 55.1297 39.5259C54.6427 38.37 54.0771 37.2444 53.5249 36.1147C49.1303 27.2065 44.5185 18.3925 39.6932 9.67924C39.0145 8.46176 38.3502 7.23693 37.6335 6.03828C36.9291 4.86904 36.1092 3.74344 35.0477 2.82826C33.354 1.32639 31.0814 0.43097 28.7491 0.295898H27.6753C25.2742 0.406161 22.9305 1.34339 21.2077 2.90545C20.1852 3.80638 19.3939 4.90487 18.7083 6.0415C18.001 7.22039 17.3461 8.42593 16.6802 9.62411C13.4425 15.47 10.3 21.3611 7.25396 27.2955C5.43825 30.8469 3.63786 34.4042 1.90612 37.9905C1.18793 39.4846 0.538409 41.0296 0.293911 42.6606C-0.159029 45.4144 0.490497 48.3047 2.07208 50.6693C3.43534 52.7234 5.48172 54.3788 7.86694 55.3348C9.73156 56.0834 11.7582 56.417 13.7858 56.3093C16.494 56.1756 19.1055 55.2705 21.3968 53.9497C23.953 52.4905 26.1391 50.5499 28.1746 48.5183C30.0674 50.4157 32.093 52.2263 34.4313 53.6455C36.6896 55.0275 39.2645 56.0281 41.9727 56.2661C44.9141 56.5519 47.9617 55.8737 50.4304 54.3507C52.6139 53.005 54.3048 51.0725 55.2779 48.8105C55.9045 47.3509 56.2129 45.79 56.1852 44.2185ZM28.187 43.1563C27.4485 42.3477 26.798 41.473 26.1446 40.6047C25.045 39.1046 24.0453 37.5366 23.2412 35.8799C22.5823 34.5053 22.0533 33.0623 21.8468 31.5636C21.6962 30.3746 21.7322 29.1341 22.2015 28.0053C22.6213 26.9468 23.4284 26.0298 24.4508 25.4238C26.8869 23.9615 30.3593 24.1195 32.5667 25.8933C33.684 26.7787 34.3513 28.0876 34.5192 29.4328C34.739 31.2209 34.3019 33.0168 33.6306 34.6845C32.3632 37.7792 30.3568 40.5532 28.187 43.1563ZM52.09 46.9489C51.439 49.0388 49.8742 50.8646 47.8269 51.9181C46.0121 52.8622 43.8462 53.1856 41.8004 52.8677C39.1948 52.4905 36.857 51.2046 34.8314 49.6866C33.3427 48.5739 32.0021 47.3022 30.7179 45.9915C32.7455 43.6061 34.6556 41.1105 36.1147 38.3824C37.388 35.9934 38.3556 33.405 38.4475 30.7187C38.4994 29.0142 38.1546 27.2785 37.2986 25.761C36.1779 23.7336 34.17 22.1761 31.8683 21.4227C29.7182 20.7083 27.328 20.6444 25.1344 21.226C23.0658 21.7705 21.1765 22.9268 19.8819 24.5298C18.7424 25.9273 18.0929 27.6456 17.9422 29.3882C17.7106 31.8981 18.3868 34.4019 19.4097 36.7092C20.9306 40.0805 23.1627 43.132 25.6279 45.9625C24.5163 47.1566 23.31 48.2716 22.0192 49.298C20.0178 50.8733 17.7279 52.2447 15.1337 52.7666C13.0365 53.2045 10.7738 52.9867 8.85037 52.0816C6.59752 51.0373 4.86776 49.0705 4.21527 46.8097C3.71639 45.1489 3.82704 43.3557 4.42025 41.7289C4.91369 40.3828 5.58298 39.1 6.20929 37.8049C10.5569 28.9928 15.1169 20.2726 19.8859 11.6511C20.5972 10.3679 21.2976 9.07877 22.0503 7.81672C22.6648 6.80001 23.3795 5.80168 24.3896 5.08773C25.4818 4.29632 26.8328 3.87743 28.2171 3.90103C29.6396 3.8854 31.0538 4.37286 32.1419 5.22326C33.2167 6.05344 33.9428 7.18915 34.5948 8.32117C36.0687 10.8963 37.4843 13.5012 38.9005 16.1034C42.942 23.5437 46.8254 31.0574 50.5484 38.6402C51.111 39.8181 51.7132 40.9869 52.092 42.2301C52.5548 43.7632 52.5701 45.419 52.09 46.9489Z" fill="#B4B4B4"/>
</svg>
