<svg width="39" height="44" viewBox="0 0 39 44" fill="none" xmlns="http://www.w3.org/2000/svg">
<g clip-path="url(#clip0_2024_80)">
<path d="M27.984 0.0852051C25.3672 0.387601 22.9606 1.66549 21.2444 3.66391C20.4071 4.58913 19.7771 5.68258 19.3966 6.87104C19.0161 8.0595 18.8939 9.31553 19.0383 10.555C20.3539 10.5288 21.6471 10.2093 22.8236 9.61981C24 9.03028 25.03 8.18559 25.8385 7.14736C26.6517 6.17443 27.2608 5.04775 27.6294 3.83446C27.998 2.62117 28.1186 1.34609 27.984 0.0852051Z" fill="black"/>
<path d="M37.3323 14.6834C36.3282 13.3732 35.0491 12.299 33.5851 11.5363C32.1211 10.7736 30.5077 10.3411 28.8586 10.269C24.8815 10.269 23.1972 12.1374 20.4346 12.1374C17.5855 12.1374 15.4206 10.2756 11.9804 10.2756C10.1071 10.3696 8.28484 10.9186 6.67143 11.8753C5.05803 12.832 3.70204 14.1673 2.72081 15.7659C-0.48768 20.6436 0.0622246 29.8166 5.26033 37.6322C7.12005 40.4272 9.60544 43.5707 12.8529 43.5989C15.7453 43.627 16.5593 41.7803 20.4758 41.7608C24.3922 41.7413 25.137 43.6227 28.0207 43.5924C31.2682 43.5686 33.8921 40.0851 35.7519 37.2901C36.8742 35.6278 37.8334 33.8609 38.6161 32.0141C36.8903 31.3874 35.3825 30.2752 34.2739 28.8116C33.1654 27.3479 32.5035 25.5951 32.3679 23.7641C32.2322 21.933 32.6286 20.1018 33.5094 18.4908C34.3901 16.8798 35.7177 15.5576 37.3323 14.6834Z" fill="black"/>
</g>
<defs>
<clipPath id="clip0_2024_80">
<rect width="37.8852" height="43.5142" fill="white" transform="translate(0.731201 0.0852051)"/>
</clipPath>
</defs>
</svg>
