<svg width="46" height="61" viewBox="0 0 46 61" fill="none" xmlns="http://www.w3.org/2000/svg">
<path d="M36.6582 29.7318L34.865 28.7725L36.4242 27.4806C38.2561 26.0049 41.2965 22.6467 41.2965 16.8718C41.2961 8.01555 34.0459 2.2959 22.8398 2.2959H8.61234C5.27467 2.40425 2.6201 4.98315 2.59045 8.14474V58.33H23.0932C35.5663 58.33 43.5964 51.9095 43.5964 41.9459C43.5964 36.5956 41.0043 31.983 36.619 29.6765M23.9313 48.9017H13.9918V37.6473C13.9918 35.2491 14.9663 33.9572 17.1488 33.6988H23.9704C25.0417 33.6139 26.1195 33.7518 27.13 34.1032C28.1405 34.4545 29.0599 35.011 29.8251 35.7344C30.5841 36.4523 31.169 37.3214 31.5381 38.2802C31.9072 39.2389 32.0516 40.2638 31.961 41.2821C31.961 46.0792 28.9012 48.9388 23.9704 48.9388L23.9313 48.9017ZM13.9721 18.477V15.5249C13.9721 12.9419 15.1414 11.6871 17.6754 11.5393H22.7813C27.1472 11.5393 29.7978 14.0121 29.7978 18.1819C29.7978 21.3185 28.0047 25.0085 22.9762 25.0085H14.0112L13.9721 18.477Z" stroke="#B4B4B4" stroke-width="3.36205" stroke-linejoin="round"/>
</svg>
