<svg width="27" height="27" viewBox="0 0 27 27" fill="none" xmlns="http://www.w3.org/2000/svg">
<path d="M1.65686 10.0374H25.1569M6.87908 2.2041V4.81521M19.9346 2.2041V4.81521M5.57353 13.9541H8.18464M12.1013 13.9541H14.7124M18.6291 13.9541H21.2402M5.57353 17.8708H8.18464M12.1013 17.8708H14.7124M18.6291 17.8708H21.2402M5.57353 21.7874H8.18464M12.1013 21.7874H14.7124M18.6291 21.7874H21.2402M5.83464 25.7041H20.9791C22.4414 25.7041 23.1727 25.7041 23.7312 25.4195C24.2225 25.1692 24.622 24.7697 24.8722 24.2784C25.1569 23.7199 25.1569 22.9887 25.1569 21.5263V8.99299C25.1569 7.53062 25.1569 6.79945 24.8722 6.24091C24.622 5.74959 24.2225 5.35014 23.7312 5.09981C23.1727 4.81521 22.4414 4.81521 20.9791 4.81521H5.83464C4.37229 4.81521 3.6411 4.81521 3.08255 5.09981C2.59123 5.35014 2.19179 5.74959 1.94146 6.24091C1.65686 6.79945 1.65686 7.53062 1.65686 8.99299V21.5263C1.65686 22.9887 1.65686 23.7199 1.94146 24.2784C2.19179 24.7697 2.59123 25.1692 3.08255 25.4195C3.6411 25.7041 4.37227 25.7041 5.83464 25.7041Z" stroke="black" stroke-width="2.61111" stroke-linecap="round"/>
</svg>
