<svg width="5" height="5" viewBox="0 0 5 5" fill="none" xmlns="http://www.w3.org/2000/svg">
<path d="M2.0695 4.56438C1.6891 4.56438 1.34551 4.47848 1.03873 4.30669C0.738085 4.12875 0.49573 3.88947 0.311664 3.58883C0.127597 3.28818 0.0355635 2.94766 0.0355635 2.56726C0.0355635 2.18685 0.127597 1.84633 0.311664 1.54569C0.49573 1.24504 0.738085 1.00882 1.03873 0.837029C1.34551 0.659098 1.6891 0.570132 2.0695 0.570132C2.41923 0.570132 2.74134 0.659098 3.03585 0.837029C3.33649 1.00882 3.57578 1.24504 3.75371 1.54569C3.93164 1.84633 4.02061 2.18685 4.02061 2.56726C4.02061 2.94766 3.93164 3.28818 3.75371 3.58883C3.57578 3.88947 3.33649 4.12875 3.03585 4.30669C2.74134 4.47848 2.41923 4.56438 2.0695 4.56438Z" fill="#1E1E1E"/>
</svg>
