<svg width="52" height="52" viewBox="0 0 52 52" fill="none" xmlns="http://www.w3.org/2000/svg">
<path d="M26.0059 51.1037C39.8098 51.1037 51 39.9778 51 26.2533C51 12.5288 39.8098 1.40289 26.0059 1.40289C12.202 1.40289 1.01172 12.5288 1.01172 26.2533C1.01172 39.9778 12.202 51.1037 26.0059 51.1037Z" stroke="#1F53E1"/>
<path d="M24.7062 33.6004L24.6858 27.3411H22.0078V24.6586H24.6858V22.8702C24.6858 20.4567 26.1778 19.2935 28.3272 19.2935C29.3568 19.2935 30.2417 19.3703 30.4995 19.4046V21.9269L29.0088 21.9276C27.8399 21.9276 27.6135 22.484 27.6135 23.3006V24.6586H30.9343L30.0416 27.3411H27.6135V33.6004H24.7062Z" fill="#1F53E1"/>
</svg>
