<svg width="44" height="56" viewBox="0 0 44 56" fill="none" xmlns="http://www.w3.org/2000/svg">
<path fill-rule="evenodd" clip-rule="evenodd" d="M9.73812 27.8421C9.73812 26.3656 9.96994 24.9499 10.3842 23.6223L3.13723 17.7722C1.72479 20.8036 0.929199 24.2197 0.929199 27.8421C0.929199 31.4617 1.72412 34.8752 3.1342 37.9049L10.3771 32.0434C9.96692 30.7218 9.73812 29.3114 9.73812 27.8421Z" fill="#FBBC05"/>
<path fill-rule="evenodd" clip-rule="evenodd" d="M22.4682 14.4102C25.5024 14.4102 28.243 15.5468 30.3962 17.4065L36.6602 10.7939C32.8431 7.28084 27.9493 5.11108 22.4682 5.11108C13.9587 5.11108 6.64518 10.2554 3.14331 17.7723L10.39 23.6224C12.0597 18.2642 16.8195 14.4102 22.4682 14.4102Z" fill="#EA4335"/>
<path fill-rule="evenodd" clip-rule="evenodd" d="M22.4682 41.2744C16.8198 41.2744 12.0601 37.4204 10.3903 32.0623L3.14331 37.9113C6.64518 45.4292 13.9587 50.5735 22.4682 50.5735C27.7202 50.5735 32.7346 48.602 36.4979 44.9082L29.6191 39.2865C27.6782 40.579 25.234 41.2744 22.4682 41.2744Z" fill="#34A853"/>
<path fill-rule="evenodd" clip-rule="evenodd" d="M43.0185 27.8428C43.0185 26.4995 42.8227 25.0529 42.529 23.71H22.4646V32.4923H34.0141C33.4365 35.4868 31.8648 37.7887 29.6155 39.2868L36.4942 44.9085C40.4473 41.03 43.0185 35.252 43.0185 27.8428Z" fill="#4285F4"/>
</svg>
