<svg width="31" height="31" viewBox="0 0 31 31" fill="none" xmlns="http://www.w3.org/2000/svg">
<path d="M26.5767 13.4872C26.5806 12.0326 26.298 10.5914 25.7449 9.24609C25.1918 7.90073 24.3792 6.67748 23.3534 5.64618C21.2817 3.56338 18.4674 2.38886 15.5297 2.38102C12.592 2.37318 9.77156 3.53265 7.68876 5.60437C5.60595 7.67608 4.43144 10.4903 4.4236 13.428C4.39758 16.8408 5.38829 20.1841 7.26947 23.0318C9.15065 25.8794 11.8371 28.1025 14.9864 29.4177C15.1474 29.4906 15.3222 29.528 15.4989 29.5273C15.6769 29.5276 15.853 29.4898 16.0151 29.4164C19.1549 28.1053 21.8347 25.8915 23.7149 23.0557C25.5952 20.2199 26.5912 16.8897 26.5767 13.4872ZM15.4989 26.9402C12.9019 25.7968 10.6996 23.9131 9.16748 21.5247C7.63537 19.1362 6.84146 16.3491 6.88506 13.5118C6.88506 12.3806 7.10786 11.2605 7.54075 10.2154C7.97364 9.17033 8.60813 8.22074 9.408 7.42087C10.2079 6.621 11.1575 5.9865 12.2025 5.55361C13.2476 5.12072 14.3677 4.89792 15.4989 4.89792C16.6301 4.89792 17.7502 5.12072 18.7953 5.55361C19.8404 5.9865 20.79 6.621 21.5899 7.42087C22.3897 8.22074 23.0242 9.17033 23.4571 10.2154C23.89 11.2605 24.1128 12.3806 24.1128 13.5118C24.1128 13.5377 24.1128 13.5672 24.1128 13.5919C24.1427 16.416 23.3422 19.1868 21.8108 21.5599C20.2794 23.933 18.0846 25.8039 15.4989 26.9402ZM15.4989 8.58395C14.5243 8.58395 13.5716 8.87297 12.7612 9.41445C11.9508 9.95592 11.3192 10.7255 10.9462 11.626C10.5732 12.5264 10.4756 13.5173 10.6658 14.4732C10.8559 15.4291 11.3253 16.3071 12.0144 16.9963C12.7036 17.6855 13.5817 18.1548 14.5376 18.345C15.4935 18.5351 16.4843 18.4375 17.3847 18.0645C18.2852 17.6916 19.0548 17.06 19.5963 16.2496C20.1378 15.4392 20.4268 14.4864 20.4268 13.5118C20.4268 12.2049 19.9076 10.9514 18.9835 10.0273C18.0593 9.10314 16.8059 8.58395 15.4989 8.58395ZM15.4989 15.9757C15.0116 15.9757 14.5352 15.8312 14.1301 15.5605C13.7249 15.2897 13.4091 14.9049 13.2226 14.4547C13.0361 14.0045 12.9873 13.5091 13.0824 13.0311C13.1774 12.5532 13.4121 12.1141 13.7567 11.7695C14.1013 11.425 14.5403 11.1903 15.0183 11.0952C15.4962 11.0002 15.9916 11.0489 16.4418 11.2354C16.8921 11.4219 17.2769 11.7377 17.5476 12.1429C17.8184 12.5481 17.9629 13.0245 17.9629 13.5118C17.9629 14.1653 17.7033 14.792 17.2412 15.2541C16.7791 15.7161 16.1524 15.9757 15.4989 15.9757Z" fill="#1E1E1E"/>
</svg>
