<svg width="12" height="16" viewBox="0 0 12 16" fill="none" xmlns="http://www.w3.org/2000/svg">
<path d="M11.7078 6.69607C11.7099 5.92735 11.5605 5.16574 11.2682 4.45475C10.9759 3.74375 10.5464 3.09728 10.0043 2.55226C8.90946 1.45153 7.42217 0.830825 5.86966 0.826681C4.31714 0.822537 2.82657 1.4353 1.72584 2.53016C0.625117 3.62502 0.00440817 5.11231 0.000263985 6.66482C-0.0134847 8.46843 0.510089 10.2353 1.50426 11.7402C2.49843 13.2452 3.91817 14.42 5.58254 15.1151C5.66762 15.1536 5.75999 15.1733 5.85338 15.173C5.94745 15.1732 6.04047 15.1532 6.12618 15.1144C7.78548 14.4215 9.20171 13.2515 10.1954 11.7529C11.1891 10.2542 11.7154 8.49423 11.7078 6.69607ZM5.85338 13.8058C4.48089 13.2015 3.31701 12.206 2.50732 10.9437C1.69763 9.6815 1.27806 8.20854 1.3011 6.7091C1.3011 6.11128 1.41885 5.51932 1.64762 4.96701C1.8764 4.41471 2.21171 3.91287 2.63443 3.49015C3.05715 3.06743 3.55899 2.73211 4.1113 2.50334C4.66361 2.27456 5.25557 2.15682 5.85338 2.15682C6.45119 2.15682 7.04315 2.27456 7.59546 2.50334C8.14777 2.73211 8.64961 3.06743 9.07233 3.49015C9.49505 3.91287 9.83037 4.41471 10.0591 4.96701C10.2879 5.51932 10.4057 6.11128 10.4057 6.7091C10.4057 6.72277 10.4057 6.73839 10.4057 6.75142C10.4214 8.24393 9.99841 9.7082 9.18909 10.9623C8.37978 12.2165 7.21984 13.2052 5.85338 13.8058ZM5.85338 4.10482C5.3383 4.10482 4.83479 4.25756 4.40652 4.54372C3.97825 4.82988 3.64445 5.23661 3.44734 5.71248C3.25023 6.18835 3.19866 6.71198 3.29914 7.21717C3.39963 7.72235 3.64766 8.18638 4.01188 8.5506C4.37609 8.91481 4.84013 9.16285 5.34531 9.26333C5.85049 9.36382 6.37413 9.31225 6.85 9.11514C7.32586 8.91802 7.7326 8.58423 8.01876 8.15596C8.30492 7.72768 8.45766 7.22417 8.45766 6.7091C8.45766 6.0184 8.18328 5.35599 7.69488 4.86759C7.20649 4.3792 6.54408 4.10482 5.85338 4.10482ZM5.85338 8.01124C5.59584 8.01124 5.34409 7.93487 5.12995 7.79179C4.91582 7.6487 4.74892 7.44534 4.65036 7.2074C4.5518 6.96947 4.52602 6.70765 4.57626 6.45506C4.6265 6.20247 4.75052 5.97045 4.93263 5.78834C5.11474 5.60624 5.34676 5.48222 5.59935 5.43198C5.85194 5.38173 6.11375 5.40752 6.35169 5.50608C6.58962 5.60463 6.79299 5.77153 6.93607 5.98567C7.07915 6.1998 7.15552 6.45156 7.15552 6.7091C7.15552 7.05444 7.01833 7.38565 6.77413 7.62985C6.52993 7.87405 6.19873 8.01124 5.85338 8.01124Z" fill="#1E1E1E"/>
</svg>
