<svg width="140" height="25" viewBox="0 0 140 25" fill="none" xmlns="http://www.w3.org/2000/svg">
<path d="M11.3636 2.4423C11.5789 1.77961 12.5164 1.77961 12.7317 2.4423L14.5777 8.12346C14.6739 8.41982 14.9501 8.62047 15.2617 8.62047H21.2353C21.932 8.62047 22.2218 9.51211 21.658 9.92167L16.8254 13.4328C16.5733 13.616 16.4678 13.9406 16.5641 14.237L18.41 19.9182C18.6253 20.5809 17.8668 21.1319 17.3031 20.7224L12.4704 17.2112C12.2183 17.028 11.877 17.028 11.6249 17.2112L6.79218 20.7224C6.22847 21.1319 5.46999 20.5809 5.68531 19.9182L7.53124 14.237C7.62753 13.9406 7.52204 13.616 7.26994 13.4328L2.43725 9.92167C1.87354 9.51211 2.16325 8.62047 2.86004 8.62047H8.83357C9.14518 8.62047 9.42135 8.41982 9.51765 8.12346L11.3636 2.4423Z" fill="#1F53E1"/>
<path d="M40.3396 2.4423C40.555 1.77961 41.4925 1.77961 41.7078 2.4423L43.5537 8.12346C43.65 8.41982 43.9262 8.62047 44.2378 8.62047H50.2113C50.9081 8.62047 51.1978 9.51211 50.6341 9.92167L45.8014 13.4328C45.5493 13.616 45.4438 13.9406 45.5401 14.237L47.3861 19.9182C47.6014 20.5809 46.8429 21.1319 46.2792 20.7224L41.4465 17.2112C41.1944 17.028 40.853 17.028 40.6009 17.2112L35.7683 20.7224C35.2045 21.1319 34.4461 20.5809 34.6614 19.9182L36.5073 14.237C36.6036 13.9406 36.4981 13.616 36.246 13.4328L31.4133 9.92167C30.8496 9.51211 31.1393 8.62047 31.8361 8.62047H37.8096C38.1213 8.62047 38.3974 8.41982 38.4937 8.12346L40.3396 2.4423Z" fill="#1F53E1"/>
<path d="M69.316 2.4423C69.5313 1.77961 70.4688 1.77961 70.6841 2.4423L72.53 8.12346C72.6263 8.41982 72.9025 8.62047 73.2141 8.62047H79.1877C79.8844 8.62047 80.1742 9.51211 79.6104 9.92167L74.7778 13.4328C74.5257 13.616 74.4202 13.9406 74.5165 14.237L76.3624 19.9182C76.5777 20.5809 75.8192 21.1319 75.2555 20.7224L70.4228 17.2112C70.1707 17.028 69.8294 17.028 69.5773 17.2112L64.7446 20.7224C64.1809 21.1319 63.4224 20.5809 63.6377 19.9182L65.4836 14.237C65.5799 13.9406 65.4744 13.616 65.2223 13.4328L60.3896 9.92167C59.8259 9.51211 60.1156 8.62047 60.8124 8.62047H66.786C67.0976 8.62047 67.3737 8.41982 67.47 8.12346L69.316 2.4423Z" fill="#1F53E1"/>
<path d="M98.292 2.4423C98.5074 1.77961 99.4449 1.77961 99.6602 2.4423L101.506 8.12346C101.602 8.41982 101.879 8.62047 102.19 8.62047H108.164C108.861 8.62047 109.15 9.51211 108.587 9.92167L103.754 13.4328C103.502 13.616 103.396 13.9406 103.493 14.237L105.338 19.9182C105.554 20.5809 104.795 21.1319 104.232 20.7224L99.3989 17.2112C99.1468 17.028 98.8054 17.028 98.5533 17.2112L93.7206 20.7224C93.1569 21.1319 92.3985 20.5809 92.6138 19.9182L94.4597 14.237C94.556 13.9406 94.4505 13.616 94.1984 13.4328L89.3657 9.92167C88.802 9.51211 89.0917 8.62047 89.7885 8.62047H95.762C96.0736 8.62047 96.3498 8.41982 96.4461 8.12346L98.292 2.4423Z" fill="#1F53E1"/>
<path d="M127.268 2.4423C127.483 1.77961 128.421 1.77961 128.636 2.4423L130.482 8.12346C130.578 8.41982 130.855 8.62047 131.166 8.62047H137.14C137.837 8.62047 138.126 9.51211 137.563 9.92167L132.73 13.4328C132.478 13.616 132.372 13.9406 132.469 14.237L134.315 19.9182C134.53 20.5809 133.771 21.1319 133.208 20.7224L128.375 17.2112C128.123 17.028 127.782 17.028 127.529 17.2112L122.697 20.7224C122.133 21.1319 121.375 20.5809 121.59 19.9182L123.436 14.237C123.532 13.9406 123.427 13.616 123.174 13.4328L118.342 9.92167C117.778 9.51211 118.068 8.62047 118.765 8.62047H124.738C125.05 8.62047 125.326 8.41982 125.422 8.12346L127.268 2.4423Z" fill="#1F53E1"/>
</svg>
