<svg width="28" height="28" viewBox="0 0 28 28" fill="none" xmlns="http://www.w3.org/2000/svg">
<path d="M25.4843 0.858398C26.4795 0.858398 27.2953 1.62886 27.368 2.60611L27.3727 2.74679V25.4075C27.3727 26.4027 26.6022 27.2185 25.625 27.2902L25.4843 27.2959H2.82357C1.82839 27.2959 1.0126 26.5254 0.939902 25.5482L0.935181 25.4075V2.74679C0.935181 1.75161 1.70564 0.935823 2.68289 0.86312L2.82357 0.858398H25.4843ZM14.1539 5.49912L11.2401 8.41197H2.82357V25.4075H10.3771V20.6865C10.3771 19.6913 11.1476 18.8756 12.1249 18.8029L12.2655 18.7981H16.0423C17.0375 18.7981 17.8533 19.5686 17.926 20.5458L17.9307 20.6865V25.4075H25.4843V8.41197H17.0677L14.1539 5.49912ZM16.0423 20.6865H12.2655V25.4075H16.0423V20.6865ZM21.7075 18.7981C22.2287 18.7981 22.6517 19.2211 22.6517 19.7423C22.6517 20.2635 22.2287 20.6865 21.7075 20.6865C21.1863 20.6865 20.7633 20.2635 20.7633 19.7423C20.7633 19.2211 21.1863 18.7981 21.7075 18.7981ZM6.60036 18.7981C7.12156 18.7981 7.54456 19.2211 7.54456 19.7423C7.54456 20.2635 7.12156 20.6865 6.60036 20.6865C6.07916 20.6865 5.65616 20.2635 5.65616 19.7423C5.65616 19.2211 6.07916 18.7981 6.60036 18.7981ZM21.7075 15.0213C22.2287 15.0213 22.6517 15.4443 22.6517 15.9655C22.6517 16.4867 22.2287 16.9097 21.7075 16.9097C21.1863 16.9097 20.7633 16.4867 20.7633 15.9655C20.7633 15.4443 21.1863 15.0213 21.7075 15.0213ZM6.60036 15.0213C7.12156 15.0213 7.54456 15.4443 7.54456 15.9655C7.54456 16.4867 7.12156 16.9097 6.60036 16.9097C6.07916 16.9097 5.65616 16.4867 5.65616 15.9655C5.65616 15.4443 6.07916 15.0213 6.60036 15.0213ZM21.7075 11.2446C22.2287 11.2446 22.6517 11.6676 22.6517 12.1888C22.6517 12.71 22.2287 13.133 21.7075 13.133C21.1863 13.133 20.7633 12.71 20.7633 12.1888C20.7633 11.6676 21.1863 11.2446 21.7075 11.2446ZM14.1539 11.2446C14.6751 11.2446 15.0981 11.6676 15.0981 12.1888C15.0981 12.71 14.6751 13.133 14.1539 13.133C13.6327 13.133 13.2097 12.71 13.2097 12.1888C13.2097 11.6676 13.6327 11.2446 14.1539 11.2446ZM6.60036 11.2446C7.12156 11.2446 7.54456 11.6676 7.54456 12.1888C7.54456 12.71 7.12156 13.133 6.60036 13.133C6.07916 13.133 5.65616 12.71 5.65616 12.1888C5.65616 11.6676 6.07916 11.2446 6.60036 11.2446ZM25.4843 6.52358V2.74679H2.82357V6.52358H10.4565L12.8188 4.16309C13.5175 3.46438 14.627 3.42756 15.3691 4.05262L15.489 4.16309L17.8505 6.52358H25.4843Z" fill="#1F53E1"/>
</svg>
