<svg width="68" height="69" viewBox="0 0 68 69" fill="none" xmlns="http://www.w3.org/2000/svg">
<path d="M45.6663 48.2874V45.7874M22.333 48.2874V45.7874" stroke="white" stroke-width="2.5" stroke-linecap="round"/>
<path d="M17.333 39.9541C17.333 38.4009 17.333 37.6244 17.5867 37.0118C17.9251 36.1951 18.574 35.5461 19.3907 35.2078C20.0033 34.9541 20.7799 34.9541 22.333 34.9541H45.6663C47.2195 34.9541 47.996 34.9541 48.6087 35.2078C49.4253 35.5461 50.0743 36.1951 50.4127 37.0118C50.6663 37.6244 50.6663 38.4009 50.6663 39.9541C50.6663 41.5073 50.6663 42.2838 50.4127 42.8964C50.0743 43.7131 49.4253 44.3621 48.6087 44.7004C47.996 44.9541 47.2195 44.9541 45.6663 44.9541H22.333C20.7799 44.9541 20.0033 44.9541 19.3907 44.7004C18.574 44.3621 17.9251 43.7131 17.5867 42.8964C17.333 42.2838 17.333 41.5073 17.333 39.9541Z" stroke="white" stroke-width="2.5"/>
<path d="M49 34.9541C49 28.6687 49 25.526 47.0473 23.5734C45.0948 21.6208 41.952 21.6208 35.6667 21.6208H32.3333C26.0479 21.6208 22.9052 21.6208 20.9526 23.5734C19 25.526 19 28.6687 19 34.9541" stroke="white" stroke-width="2.5"/>
<path d="M44.8337 34.9541V32.4541C44.8337 29.3114 44.8337 27.7401 43.8573 26.7638C42.881 25.7874 41.3097 25.7874 38.167 25.7874H29.8337C26.691 25.7874 25.1196 25.7874 24.1433 26.7638C23.167 27.7401 23.167 29.3114 23.167 32.4541V34.9541" stroke="white" stroke-width="2.5"/>
<path d="M34 26.6208V34.9541" stroke="white" stroke-width="2.5"/>
</svg>
