<svg width="52" height="52" viewBox="0 0 52 52" fill="none" xmlns="http://www.w3.org/2000/svg">
<path d="M26.0059 50.8045C39.8098 50.8045 51 39.6786 51 25.9541C51 12.2296 39.8098 1.1037 26.0059 1.1037C12.202 1.1037 1.01172 12.2296 1.01172 25.9541C1.01172 39.6786 12.202 50.8045 26.0059 50.8045Z" stroke="#1F53E1"/>
<g clip-path="url(#clip0_2044_318)">
<path d="M29.7552 18.5021H22.2569C20.1864 18.5021 18.5078 20.171 18.5078 22.2297V29.6848C18.5078 31.7435 20.1864 33.4124 22.2569 33.4124H29.7552C31.8258 33.4124 33.5043 31.7435 33.5043 29.6848V22.2297C33.5043 20.171 31.8258 18.5021 29.7552 18.5021Z" stroke="#1F53E1" stroke-width="2" stroke-linecap="round" stroke-linejoin="round"/>
<path d="M29.0052 25.4882C29.0978 26.1086 28.9912 26.7423 28.7006 27.299C28.4101 27.8558 27.9503 28.3073 27.3868 28.5893C26.8233 28.8713 26.1847 28.9694 25.5619 28.8698C24.939 28.7701 24.3636 28.4777 23.9175 28.0342C23.4715 27.5907 23.1774 27.0186 23.0772 26.3994C22.9769 25.7801 23.0757 25.1452 23.3593 24.5849C23.6429 24.0246 24.097 23.5675 24.657 23.2787C25.2169 22.9898 25.8543 22.8838 26.4783 22.9758C27.1149 23.0696 27.7042 23.3646 28.1592 23.817C28.6142 24.2694 28.9108 24.8553 29.0052 25.4882Z" stroke="#1F53E1" stroke-width="2" stroke-linecap="round" stroke-linejoin="round"/>
<ellipse cx="30.1289" cy="21.8548" rx="1.125" ry="1.11827" fill="#1F53E1"/>
</g>
<defs>
<clipPath id="clip0_2044_318">
<rect width="17.9958" height="17.8923" fill="white" transform="translate(17.0078 17.0099)"/>
</clipPath>
</defs>
</svg>
