<svg width="39" height="39" viewBox="0 0 39 39" fill="none" xmlns="http://www.w3.org/2000/svg">
<path fill-rule="evenodd" clip-rule="evenodd" d="M37.179 0.957165C35.6942 -0.532351 33.0846 -0.183231 31.5915 1.31343L23.9926 8.89447L9.89821 3.62757C8.54811 3.27842 7.1885 2.8268 5.51428 4.50578C4.6599 5.36136 2.88439 7.14164 5.51428 9.77629L15.1782 17.6886L8.89013 23.9636L3.02262 22.4967C2.15274 22.2727 1.56648 22.4479 1.11963 22.9412C0.894414 23.2224 -0.739291 24.4331 0.39989 25.5747L7.22184 30.8821L12.5293 37.7041C13.3539 38.5311 14.1201 38.0151 15.1675 37.0201C15.8312 36.3552 15.6883 36.0132 15.4881 35.0444L14.163 29.2174L20.4082 22.9508L28.3086 32.6171C30.9373 35.2518 32.714 33.4703 33.5684 32.6171C35.2438 30.9369 34.7934 29.5761 34.4442 28.2236L29.2214 14.1054L36.7893 6.51125C38.2824 5.01577 38.6649 2.44549 37.179 0.957165Z" fill="#1F53E1"/>
</svg>
