<svg width="28" height="28" viewBox="0 0 28 28" fill="none" xmlns="http://www.w3.org/2000/svg">
<path fill-rule="evenodd" clip-rule="evenodd" d="M26.5369 1.52229C25.507 0.489156 23.697 0.731308 22.6614 1.76941L17.3907 7.02767L7.61473 3.3745C6.6783 3.13234 5.73526 2.81909 4.57401 3.98364C3.9814 4.57708 2.7499 5.81189 4.57401 7.6393L11.277 13.1273L6.91552 17.4797L2.84577 16.4623C2.24242 16.3069 1.83579 16.4284 1.52585 16.7706C1.36964 16.9657 0.23649 17.8054 1.02663 18.5972L5.75839 22.2785L9.43967 27.0102C10.0116 27.5838 10.5431 27.226 11.2696 26.5358C11.7299 26.0746 11.6308 25.8374 11.4919 25.1654L10.5728 21.1238L14.9046 16.7772L20.3843 23.4819C22.2076 25.3093 23.4399 24.0736 24.0326 23.4819C25.1946 22.3165 24.8822 21.3726 24.64 20.4345L21.0174 10.642L26.2666 5.37464C27.3022 4.33737 27.5675 2.55461 26.5369 1.52229Z" fill="white"/>
</svg>
