<svg width="44" height="40" viewBox="0 0 44 40" fill="none" xmlns="http://www.w3.org/2000/svg">
<path fill-rule="evenodd" clip-rule="evenodd" d="M43.5649 19.9668C43.5682 17.8637 41.4761 16.2653 39.362 16.2678L28.6281 16.2552L22.3862 2.56465C21.6784 1.36311 21.0363 0.0823737 18.6653 0.0857439C17.4561 0.0865865 14.9418 0.0899612 14.9385 3.81256L16.1771 16.2408L7.29357 16.2316L4.18186 11.0454C3.72518 10.2719 3.18676 9.98122 2.52195 10.0141C2.16384 10.0537 0.152568 9.75455 0.150883 11.3673L1.22179 19.9441L0.150882 28.5209C0.149195 29.6887 1.0558 29.8657 2.50001 29.9027C3.43951 29.9019 3.58025 29.5589 4.12373 28.7324L7.30705 23.6751L16.1543 23.6599L14.9056 36.0815C14.9014 39.8032 17.4174 39.7999 18.6248 39.8007C20.9976 39.7974 21.6413 38.5166 22.3508 37.3134L28.6408 23.6372L39.362 23.6186C41.4752 23.6169 43.5632 22.0699 43.5649 19.9668Z" fill="#1E1E1E"/>
</svg>
