<svg width="44" height="45" viewBox="0 0 44 45" fill="none" xmlns="http://www.w3.org/2000/svg">
<path d="M22 0.336914C17.6488 0.336914 13.3953 1.62719 9.77746 4.04458C6.15958 6.46197 3.33979 9.8979 1.67466 13.9179C0.00953241 17.9378 -0.426141 22.3613 0.422734 26.6289C1.27161 30.8965 3.36691 34.8165 6.44366 37.8933C9.52041 40.97 13.4404 43.0653 17.708 43.9142C21.9756 44.7631 26.3991 44.3274 30.419 42.6623C34.439 40.9971 37.8749 38.1773 40.2923 34.5595C42.7097 30.9416 44 26.6881 44 22.3369C43.9931 16.5043 41.6731 10.9125 37.5487 6.78816C33.4244 2.66385 27.8327 0.343795 22 0.336914ZM14.298 6.09291C14.2206 7.67361 13.6833 9.19731 12.752 10.4769C11.964 10.0769 11.032 9.56291 9.99601 8.96291C11.2848 7.80471 12.7337 6.83813 14.298 6.09291ZM10.366 36.0469C7.3131 33.4632 5.20764 29.9363 4.38201 26.0229C11.6 23.5729 14.68 23.2029 15.88 23.2029C15.6637 23.7748 15.3034 24.2812 14.834 24.6729C14.2353 25.1822 13.7872 25.8454 13.538 26.5909C13.3958 27.1411 13.4145 27.7205 13.5917 28.2604C13.769 28.8003 14.0974 29.2781 14.538 29.6369C14.63 30.4909 12.572 33.1609 11.21 34.9289C10.93 35.2889 10.648 35.6769 10.366 36.0469ZM22 40.3369C19.1042 40.337 16.2517 39.6335 13.688 38.2869C13.918 37.9829 14.15 37.6649 14.376 37.3709C17.082 33.8609 19.872 30.2389 17.794 27.3709C18.4935 26.7329 19.0513 25.9552 19.4314 25.0881C19.8114 24.2209 20.0051 23.2837 20 22.3369C20.0035 21.8665 19.8926 21.4023 19.6769 20.9843C19.4613 20.5662 19.1473 20.2068 18.762 19.9369C17.836 19.2829 15.972 17.9589 4.02001 21.9209C4.09751 18.367 5.23249 14.9168 7.28001 12.0109C8.75601 12.8829 10.038 13.5929 11.106 14.1269C11.7116 14.4364 12.3911 14.5718 13.069 14.5182C13.7469 14.4645 14.3967 14.2238 14.946 13.8229C17.186 12.2549 18.346 8.22291 18.372 4.70491C21.5638 4.04603 24.8752 4.27499 27.946 5.36691C21.516 8.11291 20 11.6429 20 14.3369C20 20.4049 24.034 20.8729 26.2 21.1249C28 21.3349 28 21.3349 28 22.3369C27.968 24.026 27.6109 25.693 26.948 27.2469C26.222 29.1929 25.126 32.1369 29.106 34.1269C29.7653 34.4535 30.4923 34.62 31.228 34.6129C33.0911 34.4478 34.8955 33.8764 36.514 32.9389C34.8483 35.2279 32.6654 37.0911 30.1433 38.3766C27.6211 39.6622 24.8309 40.3339 22 40.3369ZM39.27 27.3669C37.917 27.8359 36.6007 28.4048 35.332 29.0689C33.76 29.8429 31.608 30.9029 30.894 30.5469C30.6615 30.4337 30.4369 30.3048 30.222 30.1609C30.3303 29.6401 30.4891 29.131 30.696 28.6409C31.5293 26.6422 31.972 24.5022 32 22.3369C32 17.7709 28.4 17.3529 26.66 17.1509C24.564 16.9089 24 16.8429 24 14.3369C24 11.0809 29.09 8.98291 32.708 7.90291C35.6699 10.0792 37.8891 13.1156 39.0633 16.5985C40.2375 20.0814 40.3097 23.8415 39.27 27.3669Z" fill="#1F53E1"/>
</svg>
