<svg width="24.967041" height="24.968872" viewBox="0 0 24.967 24.9689" fill="none" xmlns="http://www.w3.org/2000/svg" xmlns:xlink="http://www.w3.org/1999/xlink">
	<desc>
			Created with Pixso.
	</desc>
	<defs/>
	<path id="Vector" d="M24.36 16.14L16.14 24.36C15.75 24.75 15.22 24.96 14.67 24.96C14.12 24.96 13.59 24.75 13.2 24.36L1.44 12.6C0.56 11.62 0.05 10.37 0 9.05L0.08 2.16C0.09 1.6 0.31 1.08 0.7 0.68C1.09 0.29 1.62 0.07 2.18 0.06L9.05 0C10.36 0.05 11.62 0.57 12.59 1.44L24.36 13.21C24.74 13.6 24.96 14.12 24.96 14.67C24.96 15.22 24.74 15.75 24.36 16.14ZM5.6 4.18C5.6 3.88 5.51 3.6 5.35 3.35C5.18 3.11 4.95 2.92 4.68 2.81C4.41 2.69 4.11 2.67 3.82 2.72C3.54 2.78 3.27 2.92 3.06 3.13C2.86 3.34 2.72 3.6 2.66 3.89C2.6 4.18 2.63 4.47 2.74 4.75C2.86 5.02 3.05 5.25 3.29 5.41C3.53 5.57 3.82 5.66 4.11 5.66C4.51 5.66 4.88 5.5 5.16 5.23C5.44 4.95 5.6 4.57 5.6 4.18ZM17.95 17.94C18.04 17.84 18.12 17.73 18.17 17.6C18.23 17.48 18.25 17.34 18.25 17.21C18.25 17.07 18.23 16.93 18.17 16.81C18.12 16.68 18.04 16.57 17.95 16.47L17.2 15.72C17.51 15.25 17.73 14.72 17.85 14.17C17.98 13.67 17.99 13.15 17.85 12.66C17.72 12.17 17.47 11.71 17.11 11.35C16.6 10.84 15.92 10.54 15.2 10.49C14.73 10.46 14.25 10.51 13.8 10.65L13.8 10.65C13.41 10.77 13.03 10.95 12.69 11.17L12.68 11.17C12.39 11.36 12.11 11.59 11.86 11.84C11.71 11.99 11.55 12.12 11.38 12.25C11.19 12.38 10.98 12.49 10.76 12.57L10.76 12.57C10.56 12.63 10.34 12.66 10.13 12.64L10.12 12.64C9.9 12.62 9.7 12.53 9.53 12.38C9.42 12.25 9.33 12.09 9.3 11.91C9.26 11.73 9.28 11.55 9.34 11.38C9.47 10.88 9.73 10.42 10.1 10.05C10.24 9.94 10.38 9.83 10.53 9.74L10.59 9.71C10.78 9.59 10.98 9.49 11.19 9.42C11.39 9.35 11.59 9.31 11.8 9.31C12.08 9.31 12.34 9.2 12.54 9C12.73 8.81 12.84 8.54 12.84 8.27C12.84 7.99 12.73 7.73 12.54 7.53C12.34 7.34 12.08 7.23 11.8 7.23C11.34 7.23 10.89 7.32 10.46 7.48C10.11 7.61 9.78 7.77 9.47 7.96L9.45 7.98L8.7 7.23C8.61 7.13 8.49 7.05 8.37 7C8.24 6.95 8.1 6.92 7.97 6.92C7.83 6.92 7.7 6.95 7.57 7C7.44 7.05 7.33 7.13 7.23 7.23C7.14 7.32 7.06 7.44 7.01 7.56C6.96 7.69 6.93 7.83 6.93 7.96C6.93 8.1 6.96 8.23 7.01 8.36C7.06 8.49 7.14 8.6 7.23 8.7L7.96 9.42C7.66 9.88 7.44 10.39 7.31 10.93C7.18 11.44 7.17 11.97 7.31 12.49C7.44 13 7.7 13.47 8.07 13.85C8.57 14.34 9.22 14.64 9.91 14.7C10.42 14.76 10.93 14.7 11.42 14.54C11.83 14.4 12.23 14.2 12.59 13.94C12.85 13.75 13.1 13.54 13.33 13.3C13.48 13.16 13.64 13.03 13.81 12.92C14 12.8 14.2 12.7 14.41 12.63C14.62 12.57 14.84 12.55 15.06 12.56C15.28 12.58 15.48 12.67 15.64 12.82C15.73 12.91 15.95 13.13 15.82 13.74C15.69 14.25 15.42 14.72 15.05 15.1C14.88 15.25 14.71 15.39 14.52 15.51C14.34 15.63 14.15 15.73 13.95 15.81C13.76 15.88 13.55 15.91 13.35 15.88C13.21 15.87 13.08 15.89 12.95 15.93C12.82 15.98 12.7 16.04 12.6 16.13C12.49 16.22 12.41 16.33 12.35 16.45C12.29 16.58 12.25 16.71 12.24 16.84C12.23 16.98 12.25 17.12 12.29 17.25C12.33 17.38 12.4 17.5 12.49 17.6C12.58 17.7 12.69 17.79 12.81 17.85C12.93 17.91 13.06 17.95 13.2 17.96C13.3 17.96 13.39 17.96 13.48 17.96C13.92 17.97 14.36 17.88 14.77 17.71C15.1 17.58 15.42 17.41 15.72 17.21L15.74 17.19L16.48 17.94C16.67 18.13 16.94 18.24 17.21 18.24C17.49 18.24 17.75 18.13 17.95 17.94L17.95 17.94Z" fill="#1F53E1" fill-opacity="1.000000" fill-rule="nonzero"/>
</svg>
