<svg width="127" height="26" viewBox="0 0 127 26" fill="none" xmlns="http://www.w3.org/2000/svg">
<path d="M12.1216 4.01464C12.4972 2.85839 14.133 2.85839 14.5087 4.01463L15.851 8.14584C16.019 8.66293 16.5009 9.01302 17.0446 9.01302H21.3884C22.6041 9.01302 23.1096 10.5687 22.1261 11.2833L18.6119 13.8366C18.172 14.1561 17.9879 14.7226 18.156 15.2397L19.4983 19.3709C19.874 20.5271 18.5506 21.4886 17.567 20.774L14.0528 18.2208C13.6129 17.9012 13.0173 17.9012 12.5775 18.2208L9.06326 20.774C8.07969 21.4886 6.75632 20.5271 7.13201 19.3709L8.47432 15.2397C8.64233 14.7226 8.45827 14.1561 8.01841 13.8366L4.5042 11.2833C3.52064 10.5687 4.02612 9.01302 5.24187 9.01302H9.58567C10.1294 9.01302 10.6112 8.66293 10.7793 8.14584L12.1216 4.01464Z" fill="#1F53E1"/>
<path d="M37.2217 4.0147C37.5973 2.85845 39.2331 2.85845 39.6088 4.01469L40.9511 8.1459C41.1191 8.66299 41.601 9.01308 42.1447 9.01308H46.4885C47.7042 9.01308 48.2097 10.5688 47.2262 11.2834L43.712 13.8366C43.2721 14.1562 43.088 14.7227 43.2561 15.2398L44.5984 19.371C44.974 20.5272 43.6507 21.4887 42.6671 20.7741L39.1529 18.2209C38.713 17.9013 38.1174 17.9013 37.6776 18.2209L34.1634 20.7741C33.1798 21.4887 31.8564 20.5272 32.2321 19.371L33.5744 15.2398C33.7424 14.7227 33.5584 14.1562 33.1185 13.8366L29.6043 11.2834C28.6207 10.5688 29.1262 9.01308 30.342 9.01308H34.6858C35.2295 9.01308 35.7113 8.66299 35.8793 8.1459L37.2217 4.0147Z" fill="#1F53E1"/>
<path d="M62.3218 4.01464C62.6974 2.85839 64.3332 2.85839 64.7089 4.01463L66.0512 8.14584C66.2192 8.66293 66.7011 9.01302 67.2448 9.01302H71.5886C72.8043 9.01302 73.3098 10.5687 72.3263 11.2833L68.8121 13.8366C68.3722 14.1561 68.1881 14.7226 68.3562 15.2397L69.6985 19.3709C70.0741 20.5271 68.7508 21.4886 67.7672 20.774L64.253 18.2208C63.8131 17.9012 63.2175 17.9012 62.7777 18.2208L59.2635 20.774C58.2799 21.4886 56.9565 20.5271 57.3322 19.3709L58.6745 15.2397C58.8425 14.7226 58.6585 14.1561 58.2186 13.8366L54.7044 11.2833C53.7208 10.5687 54.2263 9.01302 55.4421 9.01302H59.7859C60.3296 9.01302 60.8114 8.66293 60.9794 8.14584L62.3218 4.01464Z" fill="#1F53E1"/>
<path d="M87.4214 4.01464C87.7971 2.85839 89.4328 2.85839 89.8085 4.01463L91.1508 8.14584C91.3188 8.66293 91.8007 9.01302 92.3444 9.01302H96.6882C97.904 9.01302 98.4094 10.5687 97.4259 11.2833L93.9117 13.8366C93.4718 14.1561 93.2877 14.7226 93.4558 15.2397L94.7981 19.3709C95.1738 20.5271 93.8504 21.4886 92.8668 20.774L89.3526 18.2208C88.9128 17.9012 88.3171 17.9012 87.8773 18.2208L84.3631 20.774C83.3795 21.4886 82.0561 20.5271 82.4318 19.3709L83.7741 15.2397C83.9421 14.7226 83.7581 14.1561 83.3182 13.8366L79.804 11.2833C78.8204 10.5687 79.3259 9.01302 80.5417 9.01302H84.8855C85.4292 9.01302 85.911 8.66293 86.0791 8.14584L87.4214 4.01464Z" fill="#1F53E1"/>
<path d="M112.521 4.01464C112.897 2.85839 114.533 2.85839 114.909 4.01463L116.251 8.14584C116.419 8.66293 116.901 9.01302 117.444 9.01302H121.788C123.004 9.01302 123.51 10.5687 122.526 11.2833L119.012 13.8366C118.572 14.1561 118.388 14.7226 118.556 15.2397L119.898 19.3709C120.274 20.5271 118.95 21.4886 117.967 20.774L114.453 18.2208C114.013 17.9012 113.417 17.9012 112.977 18.2208L109.463 20.774C108.48 21.4886 107.156 20.5271 107.532 19.3709L108.874 15.2397C109.042 14.7226 108.858 14.1561 108.418 13.8366L104.904 11.2833C103.921 10.5687 104.426 9.01302 105.642 9.01302H109.986C110.529 9.01302 111.011 8.66293 111.179 8.14584L112.521 4.01464Z" fill="#EEEEEE"/>
<path d="M113.717 3.1308V18.04C113.717 19.295 113.717 3.1308 113.717 3.1308V18.04L109.404 21.0411C108.416 21.7281 107.122 20.7671 107.493 19.6232L108.876 15.3685C109.044 14.8514 108.86 14.2849 108.42 13.9653L104.906 11.4121C103.922 10.6975 104.428 9.14179 105.643 9.14179H109.982C110.528 9.14179 111.012 8.78887 111.178 8.26885L112.547 3.98482C112.71 3.47608 113.182 3.1308 113.717 3.1308Z" fill="#1F53E1"/>
</svg>
