<svg width="127" height="26" viewBox="0 0 127 26" fill="none" xmlns="http://www.w3.org/2000/svg">
<path d="M12.1211 4.01513C12.4968 2.85888 14.1326 2.85888 14.5083 4.01513L15.8506 8.14635C16.0186 8.66344 16.5005 9.01353 17.0442 9.01353L21.388 9.01353C22.6037 9.01353 23.1092 10.5693 22.1256 11.2839L18.6114 13.8371C18.1716 14.1567 17.9875 14.7231 18.1555 15.2402L19.4978 19.3714C19.8735 20.5277 18.5501 21.4892 17.5666 20.7746L14.0524 18.2213C13.6125 17.9018 13.0169 17.9018 12.577 18.2213L9.06279 20.7746C8.07922 21.4892 6.75585 20.5277 7.13154 19.3714L8.47385 15.2402C8.64186 14.7231 8.45781 14.1567 8.01794 13.8371L4.50372 11.2839C3.52016 10.5693 4.02564 9.01353 5.24139 9.01353L9.58521 9.01353C10.1289 9.01353 10.6108 8.66344 10.7788 8.14635L12.1211 4.01513Z" fill="#1F53E1"/>
<path d="M37.2212 4.01513C37.5969 2.85888 39.2327 2.85888 39.6084 4.01513L40.9507 8.14635C41.1187 8.66344 41.6005 9.01353 42.1443 9.01353L46.4881 9.01353C47.7038 9.01353 48.2093 10.5693 47.2257 11.2839L43.7115 13.8371C43.2717 14.1567 43.0876 14.7231 43.2556 15.2402L44.5979 19.3714C44.9736 20.5277 43.6502 21.4892 42.6667 20.7746L39.1525 18.2213C38.7126 17.9018 38.117 17.9018 37.6771 18.2213L34.1629 20.7746C33.1793 21.4892 31.8559 20.5277 32.2316 19.3714L33.5739 15.2402C33.742 14.7231 33.5579 14.1567 33.118 13.8371L29.6038 11.2839C28.6203 10.5693 29.1257 9.01353 30.3415 9.01353L34.6853 9.01353C35.229 9.01353 35.7109 8.66344 35.8789 8.14635L37.2212 4.01513Z" fill="#1F53E1"/>
<path d="M62.3213 4.01513C62.697 2.85888 64.3328 2.85888 64.7085 4.01513L66.0508 8.14635C66.2188 8.66344 66.7006 9.01353 67.2443 9.01353L71.5882 9.01353C72.8039 9.01353 73.3094 10.5693 72.3258 11.2839L68.8116 13.8371C68.3718 14.1567 68.1877 14.7231 68.3557 15.2402L69.698 19.3714C70.0737 20.5277 68.7503 21.4892 67.7668 20.7746L64.2525 18.2213C63.8127 17.9018 63.2171 17.9018 62.7772 18.2213L59.263 20.7746C58.2794 21.4892 56.956 20.5277 57.3317 19.3714L58.674 15.2402C58.8421 14.7231 58.658 14.1567 58.2181 13.8371L54.7039 11.2839C53.7204 10.5693 54.2258 9.01353 55.4416 9.01353L59.7854 9.01353C60.3291 9.01353 60.811 8.66344 60.979 8.14635L62.3213 4.01513Z" fill="#1F53E1"/>
<path d="M87.4214 4.01513C87.7971 2.85888 89.4329 2.85888 89.8086 4.01513L91.1509 8.14635C91.3189 8.66344 91.8007 9.01353 92.3444 9.01353L96.6883 9.01353C97.904 9.01353 98.4095 10.5693 97.4259 11.2839L93.9117 13.8371C93.4718 14.1567 93.2878 14.7231 93.4558 15.2402L94.7981 19.3714C95.1738 20.5277 93.8504 21.4892 92.8669 20.7746L89.3526 18.2213C88.9128 17.9018 88.3172 17.9018 87.8773 18.2213L84.3631 20.7746C83.3795 21.4892 82.0561 20.5277 82.4318 19.3714L83.7741 15.2402C83.9422 14.7231 83.7581 14.1567 83.3182 13.8371L79.804 11.2839C78.8205 10.5693 79.3259 9.01353 80.5417 9.01353L84.8855 9.01353C85.4292 9.01353 85.9111 8.66344 86.0791 8.14635L87.4214 4.01513Z" fill="#1F53E1"/>
<path d="M112.521 4.01525C112.897 2.85901 114.533 2.85901 114.909 4.01525L116.251 8.14647C116.419 8.66356 116.901 9.01366 117.445 9.01366L121.788 9.01366C123.004 9.01366 123.51 10.5694 122.526 11.284L119.012 13.8372C118.572 14.1568 118.388 14.7233 118.556 15.2403L119.898 19.3716C120.274 20.5278 118.951 21.4893 117.967 20.7747L114.453 18.2215C114.013 17.9019 113.417 17.9019 112.977 18.2215L109.463 20.7747C108.48 21.4893 107.156 20.5278 107.532 19.3716L108.874 15.2403C109.042 14.7233 108.858 14.1568 108.418 13.8372L104.904 11.284C103.921 10.5694 104.426 9.01366 105.642 9.01366L109.986 9.01366C110.529 9.01366 111.011 8.66356 111.179 8.14647L112.521 4.01525Z" fill="#EEEEEE"/>
</svg>
