<svg width="62" height="62" viewBox="0 0 62 62" fill="none" xmlns="http://www.w3.org/2000/svg">
<path fill-rule="evenodd" clip-rule="evenodd" d="M30.2433 20.7121C24.8926 20.7121 20.5549 25.0497 20.5549 30.4005C20.5549 35.7513 24.8926 40.0889 30.2433 40.0889C35.5941 40.0889 39.9317 35.7513 39.9317 30.4005C39.9317 25.0497 35.5941 20.7121 30.2433 20.7121ZM18.894 30.4005C18.894 24.1325 23.9753 19.0512 30.2433 19.0512C36.5114 19.0512 41.5926 24.1325 41.5926 30.4005C41.5926 33.2356 40.553 35.8279 38.8343 37.8171L42.4566 41.4394C42.7809 41.7637 42.7809 42.2895 42.4566 42.6138C42.1323 42.9381 41.6065 42.9381 41.2822 42.6138L37.6599 38.9915C35.6708 40.7102 33.0784 41.7498 30.2433 41.7498C23.9753 41.7498 18.894 36.6685 18.894 30.4005Z" fill="#1E1E1E" fill-opacity="0.5"/>
</svg>
