<svg width="49" height="57" viewBox="0 0 49 57" fill="none" xmlns="http://www.w3.org/2000/svg">
<path d="M24.5 0.836914L0.5 8.83692V32.8369C0.5 46.0932 11.2437 56.8369 24.5 56.8369C37.7562 56.8369 48.5 46.0932 48.5 32.8369V8.83692L24.5 0.836914ZM44 32.8369C44 43.6057 35.2687 52.3369 24.5 52.3369C13.7312 52.3369 5 43.6057 5 32.8369V12.2119L24.5 5.33691L44 12.2119V32.8369Z" fill="#1F53E1"/>
<path d="M16.1503 26.5307C15.9418 26.3212 15.6939 26.1549 15.421 26.0415C15.148 25.9281 14.8553 25.8697 14.5597 25.8697C14.2641 25.8697 13.9714 25.9281 13.6985 26.0415C13.4255 26.1549 13.1776 26.3212 12.9691 26.5307C12.7596 26.7392 12.5934 26.9871 12.4799 27.26C12.3665 27.533 12.3081 27.8257 12.3081 28.1213C12.3081 28.4169 12.3665 28.7096 12.4799 28.9825C12.5934 29.2555 12.7596 29.5034 12.9691 29.7119L21.0566 37.7994L21.1878 37.9307C21.3851 38.1283 21.6194 38.2851 21.8773 38.3921C22.1352 38.499 22.4117 38.5541 22.691 38.5541C22.9702 38.5541 23.2467 38.499 23.5046 38.3921C23.7625 38.2851 23.9968 38.1283 24.1941 37.9307L38.1628 23.9619C38.3605 23.7647 38.5173 23.5304 38.6242 23.2724C38.7312 23.0145 38.7863 22.738 38.7863 22.4588C38.7863 22.1796 38.7312 21.9031 38.6242 21.6451C38.5173 21.3872 38.3605 21.1529 38.1628 20.9557L37.9878 20.7807C37.7906 20.583 37.5563 20.4262 37.2984 20.3193C37.0404 20.2123 36.7639 20.1572 36.4847 20.1572C36.2055 20.1572 35.929 20.2123 35.6711 20.3193C35.4131 20.4262 35.1788 20.583 34.9816 20.7807L22.6878 33.0682L16.1503 26.5307Z" fill="#1F53E1"/>
</svg>
