<svg width="68" height="69" viewBox="0 0 68 69" fill="none" xmlns="http://www.w3.org/2000/svg">
<g clip-path="url(#clip0_2041_159)">
<path d="M47.3335 53.2924L46.4951 53.2874C34.9835 53.2174 15.6668 52.4774 15.6668 48.2874C15.6668 46.4708 18.5935 45.9274 22.6451 45.1774C24.6335 44.8108 28.7735 44.0408 29.0018 43.2808C28.8085 42.6674 25.4735 41.7991 21.4635 41.6191L20.6668 41.5858V39.9541L22.3335 39.9974C25.7668 40.2108 30.6668 40.9308 30.6668 43.2874C30.6668 45.3858 27.0901 46.0474 22.9468 46.8158C20.9801 47.1808 17.6918 47.7891 17.3101 48.3824C17.8251 49.9991 31.1835 51.5274 46.5018 51.6208H47.3335V53.2924ZM29.0001 23.5091C29.0001 27.3074 25.3568 32.4541 22.3335 38.2874C19.3101 32.4541 15.6668 27.3091 15.6668 23.5074C15.6464 22.616 15.8034 21.7293 16.1285 20.899C16.4535 20.0687 16.9403 19.3112 17.5605 18.6705C18.1808 18.0298 18.922 17.5187 19.7414 17.1669C20.5607 16.815 21.4418 16.6294 22.3335 16.6208C23.2251 16.6294 24.1062 16.815 24.9255 17.1669C25.7449 17.5187 26.4862 18.0298 27.1064 18.6705C27.7266 19.3112 28.2134 20.0687 28.5385 20.899C28.8635 21.7293 29.0205 22.6176 29.0001 23.5091ZM23.2751 33.0958C25.3618 29.3874 27.3335 25.8908 27.3335 23.5074C27.355 22.8346 27.242 22.1642 27.0012 21.5355C26.7603 20.9069 26.3963 20.3327 25.9306 19.8465C25.465 19.3603 24.9069 18.972 24.2892 18.7043C23.6715 18.4366 23.0066 18.2949 22.3335 18.2874C21.6603 18.2949 20.9954 18.4366 20.3777 18.7043C19.76 18.972 19.2019 19.3603 18.7363 19.8465C18.2706 20.3327 17.9066 20.9069 17.6658 21.5355C17.4249 22.1642 17.3119 22.8346 17.3335 23.5074C17.3335 25.8908 19.3051 29.3908 21.3918 33.0958C21.7018 33.6491 22.0185 34.2091 22.3335 34.7791C22.6501 34.2091 22.9651 33.6491 23.2751 33.0958ZM25.6668 23.2874C25.6668 23.9467 25.4713 24.5912 25.105 25.1393C24.7388 25.6875 24.2182 26.1147 23.6091 26.367C23 26.6193 22.3298 26.6853 21.6832 26.5567C21.0366 26.4281 20.4426 26.1106 19.9764 25.6445C19.5103 25.1783 19.1928 24.5843 19.0642 23.9377C18.9356 23.2911 19.0016 22.6209 19.2539 22.0118C19.5062 21.4027 19.9334 20.8821 20.4816 20.5159C21.0297 20.1496 21.6742 19.9541 22.3335 19.9541C23.2175 19.9541 24.0654 20.3053 24.6905 20.9304C25.3156 21.5555 25.6668 22.4034 25.6668 23.2874ZM24.0001 23.2874C24.0001 22.9578 23.9024 22.6356 23.7192 22.3615C23.5361 22.0874 23.2758 21.8738 22.9713 21.7476C22.6667 21.6215 22.3316 21.5885 22.0083 21.6528C21.685 21.7171 21.388 21.8758 21.1549 22.1089C20.9219 22.342 20.7631 22.639 20.6988 22.9623C20.6345 23.2856 20.6675 23.6207 20.7937 23.9252C20.9198 24.2298 21.1334 24.4901 21.4075 24.6732C21.6816 24.8564 22.0038 24.9541 22.3335 24.9541C22.7755 24.9541 23.1994 24.7785 23.512 24.466C23.8245 24.1534 24.0001 23.7295 24.0001 23.2874ZM52.3335 35.1741C52.3335 38.9758 48.6901 44.1208 45.6668 49.9541C42.6435 44.1208 39.0001 38.9758 39.0001 35.1741C38.9719 34.2809 39.1234 33.3911 39.4457 32.5576C39.768 31.7241 40.2546 30.9638 40.8764 30.322C41.4983 29.6802 42.2428 29.1699 43.0657 28.8214C43.8886 28.4728 44.7731 28.2933 45.6668 28.2933C46.5605 28.2933 47.445 28.4728 48.2679 28.8214C49.0908 29.1699 49.8353 29.6802 50.4572 30.322C51.079 30.9638 51.5655 31.7241 51.8879 32.5576C52.2102 33.3911 52.3617 34.2809 52.3335 35.1741ZM46.6085 44.7624C48.6951 41.0541 50.6668 37.5574 50.6668 35.1741C50.697 34.4987 50.5901 33.8241 50.3524 33.1912C50.1148 32.5582 49.7513 31.98 49.2841 31.4914C48.8168 31.0027 48.2554 30.6138 47.6337 30.3481C47.012 30.0824 46.3429 29.9454 45.6668 29.9454C44.9907 29.9454 44.3216 30.0824 43.6999 30.3481C43.0782 30.6138 42.5168 31.0027 42.0495 31.4914C41.5822 31.98 41.2188 32.5582 40.9812 33.1912C40.7435 33.8241 40.6366 34.4987 40.6668 35.1741C40.6668 37.5574 42.6385 41.0574 44.7251 44.7624C45.0351 45.3158 45.3518 45.8758 45.6668 46.4458C45.9835 45.8758 46.2985 45.3158 46.6085 44.7624ZM49.0001 34.9541C49.0001 35.6134 48.8046 36.2578 48.4384 36.806C48.0721 37.3542 47.5515 37.7814 46.9424 38.0337C46.3333 38.286 45.6631 38.352 45.0165 38.2234C44.3699 38.0948 43.7759 37.7773 43.3098 37.3111C42.8436 36.845 42.5261 36.251 42.3975 35.6044C42.2689 34.9578 42.3349 34.2876 42.5872 33.6785C42.8395 33.0694 43.2667 32.5488 43.8149 32.1825C44.3631 31.8163 45.0075 31.6208 45.6668 31.6208C46.5508 31.6208 47.3987 31.972 48.0238 32.5971C48.6489 33.2222 49.0001 34.0701 49.0001 34.9541ZM47.3335 34.9541C47.3335 34.6245 47.2357 34.3022 47.0526 34.0282C46.8694 33.7541 46.6091 33.5405 46.3046 33.4143C46.0001 33.2882 45.6649 33.2552 45.3416 33.3195C45.0183 33.3838 44.7214 33.5425 44.4883 33.7756C44.2552 34.0087 44.0965 34.3057 44.0322 34.629C43.9678 34.9523 44.0008 35.2874 44.127 35.5919C44.2531 35.8965 44.4668 36.1568 44.7408 36.3399C45.0149 36.523 45.3372 36.6208 45.6668 36.6208C46.1088 36.6208 46.5327 36.4452 46.8453 36.1326C47.1579 35.8201 47.3335 35.3961 47.3335 34.9541Z" fill="#1F53E1"/>
</g>
<defs>
<clipPath id="clip0_2041_159">
<rect width="40" height="40" fill="white" transform="translate(14 14.9541)"/>
</clipPath>
</defs>
</svg>
