<svg width="57" height="40" viewBox="0 0 57 40" fill="none" xmlns="http://www.w3.org/2000/svg">
<path d="M42.7271 17.9941C39.9825 17.9941 37.7592 20.42 37.7592 23.4102C37.7592 26.4003 39.9844 28.8262 42.7271 28.8262C45.4718 28.8262 47.6951 26.4003 47.6951 23.4102C47.6951 22.4121 47.4485 21.4792 47.0169 20.6767L47.03 20.7032C46.1556 19.0737 44.5563 17.9941 42.7271 17.9941ZM14.7297 17.9941C11.9851 17.9941 9.76171 20.42 9.76171 23.4102C9.76171 26.4003 11.9869 28.8262 14.7297 28.8262C17.4743 28.8262 19.6977 26.4003 19.6977 23.4102C19.6977 22.4121 19.451 21.4792 19.0195 20.6767L19.0325 20.7032C18.1581 19.0737 16.5588 17.9941 14.7297 17.9941ZM42.7271 13.0812C42.729 13.0812 42.729 13.0812 42.7309 13.0812C47.9623 13.0812 52.2035 17.7049 52.2035 23.4081C52.2035 29.1113 47.9623 33.735 42.7309 33.735C37.4995 33.735 33.2583 29.1113 33.2583 23.4081C33.2583 21.5077 33.7291 19.7275 34.5493 18.1978L34.525 18.2467C36.1916 15.1364 39.2389 13.0833 42.7271 13.0812ZM14.7297 13.0751C19.963 13.0751 24.206 17.7008 24.206 23.4061C24.206 29.1113 19.963 33.7371 14.7297 33.7371C9.4964 33.7371 5.25335 29.1113 5.25335 23.4061C5.25335 21.5037 5.72417 19.7214 6.54625 18.1917L6.52197 18.2406C8.19041 15.1303 11.2396 13.0751 14.7297 13.0751ZM28.7331 5.68945C32.5296 5.69149 36.143 6.53679 39.4276 8.0624L39.2482 7.98907C33.3199 10.2093 29.0713 16.0754 28.7331 23.072L28.7312 23.1128C28.3949 16.0754 24.1444 10.2072 18.3244 8.0237L18.2161 7.98907C21.3213 6.53882 24.9366 5.69556 28.7312 5.69352L28.7331 5.68945ZM28.748 0.701172C28.7443 0.701172 28.7387 0.701172 28.735 0.701172C22.0742 0.701172 15.8937 2.93969 10.7912 6.76695L10.8977 6.69159H0.715088L5.29819 12.1259C2.48069 14.9287 0.720693 18.9474 0.720693 23.4142C0.720693 31.8428 6.98906 38.6765 14.7204 38.6765C18.4029 38.6765 21.7529 37.1264 24.2527 34.5925L24.2434 34.6007L28.7312 39.9251L33.219 34.6048C35.7096 37.1284 39.0595 38.6785 42.7421 38.6785C50.4752 38.6785 56.7436 31.8448 56.7436 23.4142C56.7436 18.9474 54.9836 14.9266 52.1773 12.1361L52.1661 12.1259L56.7492 6.69159H46.5928C41.5986 2.94172 35.42 0.703209 28.7592 0.703209C28.7536 0.703209 28.7499 0.703209 28.7443 0.703209L28.748 0.701172Z" fill="#B4B4B4"/>
</svg>
