<svg width="52" height="51" viewBox="0 0 52 51" fill="none" xmlns="http://www.w3.org/2000/svg">
<path d="M26.0059 50.5053C39.8098 50.5053 51 39.3794 51 25.6549C51 11.9304 39.8098 0.804474 26.0059 0.804474C12.202 0.804474 1.01172 11.9304 1.01172 25.6549C1.01172 39.3794 12.202 50.5053 26.0059 50.5053Z" stroke="#1F53E1"/>
<path d="M33.2902 21.0325C32.7546 21.3007 32.219 21.3901 31.5942 21.4796C32.219 21.1219 32.6653 20.5854 32.8439 19.87C32.3083 20.2277 31.6834 20.4065 30.9693 20.5854C30.4337 20.0489 29.6303 19.6912 28.8269 19.6912C27.3094 19.6912 25.9705 21.0325 25.9705 22.642C25.9705 22.9102 25.9705 23.0891 26.0597 23.2679C23.6496 23.1785 21.418 22.0161 19.9897 20.2277C19.7219 20.6748 19.6327 21.1219 19.6327 21.7478C19.6327 22.7314 20.1683 23.6256 20.9716 24.1621C20.5253 24.1621 20.079 23.9833 19.6327 23.8044C19.6327 25.2351 20.6146 26.3975 21.9536 26.6658C21.6858 26.7552 21.418 26.7552 21.1502 26.7552C20.9716 26.7552 20.7931 26.7552 20.6146 26.6658C20.9716 27.8282 22.0428 28.7224 23.3818 28.7224C22.3999 29.5272 21.1502 29.9743 19.7219 29.9743C19.4541 29.9743 19.2756 29.9743 19.0078 29.9743C20.3468 30.779 21.8643 31.3155 23.4711 31.3155C28.8269 31.3155 31.7727 26.8446 31.7727 22.9997C31.7727 22.9102 31.7727 22.7314 31.7727 22.642C32.3975 22.1949 32.9331 21.6584 33.2902 21.0325Z" fill="#1F53E1"/>
</svg>
