<svg width="68" height="69" viewBox="0 0 68 69" fill="none" xmlns="http://www.w3.org/2000/svg">
<g clip-path="url(#clip0_2041_126)">
<path d="M45.8586 29.8136H38.6586V21.4088C38.6579 17.843 35.7697 14.9549 32.204 14.9541H22.1418C18.576 14.9549 15.6879 17.843 15.687 21.4088V54.9541H18.5783V21.4088C18.5791 20.4205 18.9752 19.5388 19.6223 18.8893C20.2719 18.2421 21.1535 17.8461 22.1418 17.8453H32.204C33.1922 17.8461 34.074 18.2421 34.7234 18.8893C35.3705 19.5388 35.7666 20.4205 35.7674 21.4088V54.9541H38.6586V32.7049H45.8586C46.8469 32.7057 47.7286 33.1018 48.3781 33.7489C49.0253 34.3984 49.4213 35.2801 49.4222 36.2684V54.9541H52.3134V36.2683C52.3126 32.7025 49.4244 29.8144 45.8586 29.8136Z" fill="#1F53E1"/>
<path d="M25.1823 25.2351H22.6973V29.452H25.1823V25.2351Z" fill="#1F53E1"/>
<path d="M31.3273 25.2351H28.8423V29.452H31.3273V25.2351Z" fill="#1F53E1"/>
<path d="M25.1823 34.8737H22.6973V39.0906H25.1823V34.8737Z" fill="#1F53E1"/>
<path d="M31.3273 34.8737H28.8423V39.0906H31.3273V34.8737Z" fill="#1F53E1"/>
<path d="M25.1823 44.5123H22.6973V48.7292H25.1823V44.5123Z" fill="#1F53E1"/>
<path d="M31.3273 44.5123H28.8423V48.7292H31.3273V44.5123Z" fill="#1F53E1"/>
<path d="M44.8815 37.5846H42.3965V41.8015H44.8815V37.5846Z" fill="#1F53E1"/>
<path d="M44.8815 46.8215H42.3965V51.0384H44.8815V46.8215Z" fill="#1F53E1"/>
</g>
<defs>
<clipPath id="clip0_2041_126">
<rect width="40" height="40" fill="white" transform="translate(14 14.9541)"/>
</clipPath>
</defs>
</svg>
